<?xml version="1.0" encoding="UTF-8" standalone="no"?>
<svg
   viewBox="0 0 496.00004 383.28499"
   width="23.250002"
   height="17.966484"
   fill="#3a5e8c"
   style="opacity:1"
   version="1.1"
   id="svg1"
   sodipodi:docname="zenodo.svg"
   inkscape:version="1.3.2 (091e20e, 2023-11-25)"
   xmlns:inkscape="http://www.inkscape.org/namespaces/inkscape"
   xmlns:sodipodi="http://sodipodi.sourceforge.net/DTD/sodipodi-0.dtd"
   xmlns="http://www.w3.org/2000/svg"
   xmlns:svg="http://www.w3.org/2000/svg">
  <defs
     id="defs1" />
  <sodipodi:namedview
     id="namedview1"
     pagecolor="#ffffff"
     bordercolor="#000000"
     borderopacity="0.25"
     inkscape:showpageshadow="2"
     inkscape:pageopacity="0.0"
     inkscape:pagecheckerboard="0"
     inkscape:deskcolor="#d1d1d1"
     inkscape:zoom="9.8333333"
     inkscape:cx="11.542373"
     inkscape:cy="8.9491525"
     inkscape:window-width="1312"
     inkscape:window-height="431"
     inkscape:window-x="0"
     inkscape:window-y="37"
     inkscape:window-maximized="0"
     inkscape:current-layer="svg1" />
  <path
     d="m 487.202,86.117 c -0.444,-1.095 -0.868,-2.211 -1.353,-3.306 C 478.544,66.259 468.739,51.846 456.423,39.52 444.149,27.256 429.746,17.564 413.195,10.539 396.612,3.534 379.006,0 360.46,0 341.346,0 323.637,3.534 307.385,10.539 292.228,17.027 278.828,25.913 266.987,36.906 v -4.557 c 0,-16.086 -13.038,-29.156 -29.136,-29.156 H 33.537 c -16.086,0 -29.136,13.07 -29.136,29.156 0,16.108 13.06,29.137 29.136,29.137 H 194.106 L 5.755,315.092 A 29.14,29.14 0 0 0 0,332.472 v 19.021 c 0,16.098 13.06,29.157 29.157,29.157 h 217.456 c 15.374,0 27.948,-11.913 29.053,-27.007 9.63,7.676 20.323,14.092 32.122,19.093 16.583,7.067 34.085,10.549 52.714,10.549 28.134,0 53.21,-7.501 75.289,-22.596 17.843,-12.15 31.946,-27.266 42.195,-45.347 8.605,-15.21 14.654,-27.208 12.625,-38.53 -1.788,-9.973 -7.18,-20.11 -24.041,-24.573 -5.993,0 -14.217,1.804 -18.94,5.09 -4.783,3.264 -8.192,7.686 -10.145,13.172 l -4.68,9.61 c -6.52,14.102 -16.18,25.24 -29.023,33.516 -12.79,8.296 -27.204,12.409 -43.27,12.409 -10.57,0 -20.705,-1.974 -30.53,-5.983 -9.723,-4.029 -18.164,-9.66 -25.2,-16.944 -7.047,-7.263 -12.678,-15.704 -16.955,-25.24 -4.236,-9.548 -6.375,-19.56 -6.375,-30.129 v -25.582 h 183.03 c 0,0 15.682,-1.598 22.559,-7.962 9.903,-9.165 8.933,-22.218 8.933,-22.218 0,0 -0.45,-52.35 -3.496,-78.297 -1.09,-9.29 -5.276,-27.563 -5.276,-27.563 M 72.985,322.367 225.463,117.03 c -0.805,6.065 -1.25,12.233 -1.25,18.504 v 112.205 c 0,18.587 3.616,36.141 10.942,52.734 3.389,7.77 7.428,15.064 11.943,21.894 -0.165,0 -0.32,-0.012 -0.485,-0.012 H 72.985 Z M 439.531,164.877 H 281.44 v -29.353 c 0,-10.487 1.954,-20.56 5.993,-30.086 4.039,-9.526 9.671,-17.978 16.996,-25.252 7.202,-7.263 15.664,-12.904 25.19,-16.954 9.526,-4.01 19.837,-6.003 30.892,-6.003 10.539,0 20.685,1.994 30.469,6.003 9.805,4.06 18.225,9.69 25.22,16.954 7.047,7.274 12.657,15.715 16.955,25.252 4.277,9.526 6.375,19.589 6.375,30.086 z"
     class="colorfff svgShape"
     id="path1" />
</svg>
